PathFileType	4	(X/Y/Z)	/Users/itak/Documents/Research/Walk-IL/dataset/trc/00265_00009.trc
DataRate	CameraRate	NumFrames	NumMarkers	Units	OrigDataRate	OrigDataStartFrame	OrigNumFrames
100.000000	100.000000	4	54	mm	100.000000	321	428
Frame#	Time	RPSI			LPSI			L3			STRN			T10			C7			CLAV			RBAK			LBAK			LSHO			LUPA			LAEL			LAOL			LWTS			LWPS			LFRA			LIFD			LHPS			LHTS			RSHO			RUPA			RAEL			RAOL			RWTS			RWPS			RFRA			RIFD			RHTS			RHPS			RBHD			LFHD			RFHD			LBHD			LHIP			RHIP			RASI			LASI			LKNE			LTHI			LANK			LTIP			LTOE			LMT1			LMT5			LHEE			RKNE			RTHI			RANK			RTIP			RTOE			RMT1			RMT5			RHEE			*53			
		X1	Y1	Z1	X2	Y2	Z2	X3	Y3	Z3	X4	Y4	Z4	X5	Y5	Z5	X6	Y6	Z6	X7	Y7	Z7	X8	Y8	Z8	X9	Y9	Z9	X10	Y10	Z10	X11	Y11	Z11	X12	Y12	Z12	X13	Y13	Z13	X14	Y14	Z14	X15	Y15	Z15	X16	Y16	Z16	X17	Y17	Z17	X18	Y18	Z18	X19	Y19	Z19	X20	Y20	Z20	X21	Y21	Z21	X22	Y22	Z22	X23	Y23	Z23	X24	Y24	Z24	X25	Y25	Z25	X26	Y26	Z26	X27	Y27	Z27	X28	Y28	Z28	X29	Y29	Z29	X30	Y30	Z30	X31	Y31	Z31	X32	Y32	Z32	X33	Y33	Z33	X34	Y34	Z34	X35	Y35	Z35	X36	Y36	Z36	X37	Y37	Z37	X38	Y38	Z38	X39	Y39	Z39	X40	Y40	Z40	X41	Y41	Z41	X42	Y42	Z42	X43	Y43	Z43	X44	Y44	Z44	X45	Y45	Z45	X46	Y46	Z46	X47	Y47	Z47	X48	Y48	Z48	X49	Y49	Z49	X50	Y50	Z50	X51	Y51	Z51	X52	Y52	Z52	X53	Y53	Z53	X54	Y54	Z54	

322	3.21	-160.3301544189453	1026.629516601562	-380.6299438476562	-280.7151184082031	1030.132080078125	-388.3910217285156	-235.0396118164062	1108.319580078125	-374.4551086425781	-217.9320983886719	1305.131103515625	-613.8232421875	-229.2158508300781	1234.996215820312	-364.2694091796875	-230.5391845703125	1499.470947265625	-416.8457641601562	-217.8776550292969	1421.23779296875	-583.5608520507812	-161.25146484375	1356.8291015625	-342.3521423339844	-341.2645568847656	1460.8583984375	-406.3676147460938	-390.78955078125	1468.357543945312	-498.0520935058594	-473.445068359375	1350.910400390625	-482.9856262207031	-506.9905700683594	1144.326538085938	-518.5480346679688	-461.1143188476562	1117.109985351562	-448.3515625	-450.4345703125	931.01416015625	-648.9978637695312	-531.0348510742188	910.46240234375	-627.5604858398438	-522.9051513671875	1042.904907226562	-557.9613647460938	-460.0857238769531	739.4479370117188	-692.5611572265625	-524.326904296875	825.8731689453125	-659.836181640625	-469.8051452636719	838.100341796875	-698.899169921875	-57.67747116088867	1461.95849609375	-464.5624084472656	6.728432178497314	1395.824951171875	-444.3938903808594	50.82147598266602	1116.154052734375	-437.7568359375	-39.69697952270508	1107.112060546875	-409.2162780761719	16.43991279602051	901.499267578125	-577.700927734375	81.94979095458984	890.475341796875	-525.8690185546875	65.54080200195312	1049.439331054688	-465.9583435058594	17.79046249389648	707.5455932617188	-593.6470947265625	32.63093185424805	781.8049926757812	-617.59765625	86.44036865234375	783.4794311523438	-567.9075927734375	-180.6519165039062	1656.658203125	-450.607666015625	-259.1038818359375	1712.4560546875	-656.4807739257812	-159.0470123291016	1711.82958984375	-647.6629028320312	-309.5170593261719	1666.308837890625	-506.601806640625	-410.3956909179688	976.8838500976562	-505.7708435058594	-44.79229736328125	990.0941772460938	-469.4163818359375	-75.17169952392578	1034.114990234375	-568.4129638671875	-351.7999267578125	1024.68212890625	-596.3001098632812	-343.842041015625	512.7240600585938	-655.0568237304688	-378.9187316894531	648.34716796875	-613.50830078125	-312.5958557128906	34.37182235717773	-600.3743896484375	-336.5747375488281	279.6236877441406	-628.344970703125	-270.3830871582031	41.13100051879883	-820.70556640625	-223.0101318359375	35.51359939575195	-753.4237060546875	-336.3131408691406	37.97864151000977	-726.9796142578125	-256.8684387207031	38.3435173034668	-543.4769897460938	-82.42856597900391	501.2272033691406	-479.5973510742188	-40.8477783203125	765.1260375976562	-520.34765625	-137.7358551025391	69.18624877929688	-229.2849731445312	-99.76680755615234	383.7092590332031	-445.427734375	-148.6157379150391	40.16138458251953	-437.6057739257812	-199.4239654541016	45.61131286621094	-391.2111206054688	-97.93144226074219	38.90571212768555	-328.275634765625	-203.6476440429688	93.21933746337891	-180.0027160644531	nan	nan	nan	
323	3.22	-161.5833740234375	1027.093139648438	-384.718505859375	-281.9673767089844	1030.979858398438	-393.118408203125	-236.5149993896484	1109.009155273438	-378.9185485839844	-218.34130859375	1306.01953125	-618.0513305664062	-230.8482666015625	1235.591674804688	-368.73583984375	-231.7474212646484	1500.0751953125	-420.92236328125	-218.4214935302734	1422.083862304688	-587.6614990234375	-162.5959625244141	1357.436279296875	-346.3150939941406	-342.5121154785156	1461.489868164062	-410.8957824707031	-391.5830993652344	1469.126831054688	-502.7485961914062	-474.3677062988281	1351.710693359375	-488.5271911621094	-507.6103515625	1145.228271484375	-525.3936767578125	-462.0449829101562	1117.59423828125	-455.0480041503906	-449.7466430664062	933.207275390625	-657.3926391601562	-530.42919921875	912.2237548828125	-636.5361328125	-523.0238037109375	1044.078369140625	-565.7273559570312	-458.6111450195312	742.1489868164062	-703.09423828125	-523.3187255859375	828.0181274414062	-669.6976928710938	-468.5841369628906	840.8378295898438	-708.3828735351562	-58.72118377685547	1462.77587890625	-468.0823059082031	5.659228801727295	1396.69287109375	-447.7878112792969	49.94058990478516	1117.045043945312	-441.3019409179688	-40.65120697021484	1107.960327148438	-412.9301452636719	15.86487483978271	902.320556640625	-581.3113403320312	81.40625762939453	891.4689331054688	-529.49560546875	64.75646209716797	1050.363403320312	-469.5185546875	17.31506538391113	708.2117309570312	-596.6243896484375	32.07233810424805	782.4769287109375	-620.7640991210938	86.00060272216797	784.3861694335938	-571.1812744140625	-181.7306365966797	1657.306274414062	-454.2601928710938	-259.8657531738281	1713.384887695312	-660.2123413085938	-159.7942047119141	1712.835571289062	-651.178466796875	-310.4921264648438	1666.943725585938	-510.5036315917969	-411.2978820800781	977.822509765625	-510.7081909179688	-45.87691497802734	990.3472290039062	-473.2418212890625	-76.30600738525391	1034.3974609375	-572.2037353515625	-352.4912719726562	1025.5263671875	-601.1829223632812	-344.3335266113281	512.4996948242188	-656.207763671875	-379.3876953125	648.6259765625	-616.16064453125	-312.6346130371094	34.33040618896484	-600.3778686523438	-336.9406127929688	279.4722595214844	-628.8477783203125	-270.306640625	41.09043502807617	-820.7034301757812	-223.0060272216797	35.49112701416016	-753.4196166992188	-336.3340148925781	37.95135498046875	-726.975341796875	-256.9154663085938	38.31908416748047	-543.44189453125	-81.31784057617188	500.9405212402344	-490.6159057617188	-41.49177551269531	765.6456298828125	-526.5354614257812	-137.2484893798828	74.17304992675781	-231.4950408935547	-98.55548095703125	383.657958984375	-455.317626953125	-148.2342987060547	40.27182769775391	-438.4450988769531	-199.3464660644531	46.71699142456055	-392.5045471191406	-97.8475341796875	40.90769577026367	-329.7117309570312	-202.9100036621094	99.87374877929688	-182.947998046875	nan	nan	nan	
324	3.23	-162.7016906738281	1027.468139648438	-388.6142578125	-283.0327758789062	1031.775146484375	-397.6159057617188	-237.9239196777344	1109.654541015625	-383.2124633789062	-218.73291015625	1306.786010742188	-622.1710205078125	-232.4743957519531	1236.1640625	-373.1148376464844	-232.9484100341797	1500.6337890625	-424.9597778320312	-218.9313812255859	1422.819091796875	-591.6971435546875	-163.9706726074219	1358.005493164062	-350.1609802246094	-343.7409973144531	1462.087036132812	-415.39013671875	-392.3517456054688	1469.825927734375	-507.4380493164062	-475.2737121582031	1352.461181640625	-494.0368347167969	-508.23974609375	1146.078369140625	-532.1317749023438	-463.0876159667969	1118.033813476562	-461.6268310546875	-448.9105834960938	935.4318237304688	-665.6754150390625	-529.7228393554688	913.966796875	-645.4358520507812	-523.1162719726562	1045.210815429688	-573.3973999023438	-456.9495544433594	744.91064453125	-713.5875854492188	-522.1591186523438	830.1848754882812	-679.5215454101562	-467.2005920410156	843.6245727539062	-717.7801513671875	-59.75415802001953	1463.49853515625	-471.5164184570312	4.589322090148926	1397.461547851562	-451.0572204589844	49.10536956787109	1117.845092773438	-444.6784057617188	-41.56534194946289	1108.70166015625	-416.5076599121094	15.28146934509277	903.2025146484375	-584.9647216796875	80.82988739013672	892.4071655273438	-533.1505737304688	64.02198028564453	1051.189819335938	-472.9522399902344	16.7712574005127	708.990966796875	-599.9965209960938	31.47934722900391	783.2589111328125	-624.1781616210938	85.48630523681641	785.2870483398438	-574.6630859375	-182.7608795166016	1657.849609375	-457.860595703125	-260.559326171875	1714.260009765625	-663.8867797851562	-160.4773254394531	1713.77490234375	-654.6365966796875	-311.4246215820312	1667.5029296875	-514.3614501953125	-412.0770568847656	978.6516723632812	-515.3613891601562	-46.89320373535156	990.5244750976562	-476.9477233886719	-77.37249755859375	1034.60400390625	-575.8748779296875	-353.1578369140625	1026.277465820312	-605.8655395507812	-344.8568115234375	512.253173828125	-657.243408203125	-379.8753662109375	648.8735961914062	-618.6683959960938	-312.672119140625	34.28312301635742	-600.380615234375	-337.3741149902344	279.3234252929688	-629.2831420898438	-270.256103515625	41.04764556884766	-820.7078857421875	-223.0100860595703	35.47245788574219	-753.4222412109375	-336.371337890625	37.91148376464844	-726.9676513671875	-256.9591369628906	38.29865646362305	-543.4137573242188	-80.11830139160156	500.6676330566406	-501.621826171875	-42.02810668945312	766.1317749023438	-532.6226806640625	-136.6817169189453	79.29402160644531	-234.140380859375	-97.33787536621094	383.6871948242188	-465.3424072265625	-147.7387847900391	40.48530960083008	-439.6967468261719	-199.145751953125	48.01958847045898	-394.1719360351562	-97.60765075683594	43.19854736328125	-331.5059509277344	-202.0328369140625	106.5930938720703	-186.312744140625	nan	nan	nan	
325	3.24	-163.681640625	1027.744750976562	-392.3371276855469	-283.9074401855469	1032.512451171875	-401.87548828125	-239.2537078857422	1110.245239257812	-387.3404541015625	-219.1062927246094	1307.426513671875	-626.1835327148438	-234.0550231933594	1236.705810546875	-377.3900146484375	-234.1360626220703	1501.142578125	-428.9515380859375	-219.4129486083984	1423.439208984375	-595.6649780273438	-165.3698120117188	1358.53173828125	-353.88330078125	-344.9496765136719	1462.638793945312	-419.8426208496094	-393.1011047363281	1470.441040039062	-512.1110229492188	-476.1608276367188	1353.143310546875	-499.5069885253906	-508.8774108886719	1146.863403320312	-538.77587890625	-464.2657165527344	1118.4130859375	-468.1123046875	-447.9386291503906	937.6572875976562	-673.8218383789062	-528.9169311523438	915.6722412109375	-654.2581787109375	-523.1845092773438	1046.288330078125	-580.9808349609375	-455.1137390136719	747.7039794921875	-724.0010986328125	-520.8485717773438	832.34716796875	-689.2919311523438	-465.6618347167969	846.4287109375	-727.0654296875	-60.77006912231445	1464.119384765625	-474.8677062988281	3.523383140563965	1398.1220703125	-454.2087707519531	48.30722045898438	1118.541381835938	-447.8872680664062	-42.44375610351562	1109.326782226562	-419.9502258300781	14.70439052581787	904.1312255859375	-588.6553344726562	80.21478271484375	893.2684936523438	-536.8068237304688	63.32402420043945	1051.90625	-476.2543029785156	16.1817455291748	709.8794555664062	-603.79345703125	30.87756729125977	784.1568603515625	-627.86669921875	84.90301513671875	786.1648559570312	-578.345703125	-183.7452392578125	1658.287231445312	-461.4124755859375	-261.1786804199219	1715.075317382812	-667.5061645507812	-161.0955047607422	1714.637939453125	-658.0422973632812	-312.31494140625	1667.986938476562	-518.1773071289062	-412.7428894042969	979.3753051757812	-519.75927734375	-47.82517623901367	990.629638671875	-480.5483703613281	-78.35581207275391	1034.737915039062	-579.4403076171875	-353.7952270507812	1026.937622070312	-610.3446655273438	-345.4044494628906	511.9866027832031	-658.1727294921875	-380.3834228515625	649.0913696289062	-621.0284423828125	-312.7076110839844	34.22914886474609	-600.3809204101562	-337.8547973632812	279.1716003417969	-629.649169921875	-270.2286071777344	41.00828170776367	-820.7152709960938	-223.0220031738281	35.45955276489258	-753.4288330078125	-336.4251098632812	37.85997772216797	-726.9560546875	-256.9995727539062	38.2806396484375	-543.3911743164062	-78.88031768798828	500.4340515136719	-512.5291137695312	-42.47914505004883	766.5765991210938	-538.5960083007812	-136.0264129638672	84.41934967041016	-237.3211059570312	-96.14141082763672	383.8089904785156	-475.4185485839844	-147.1165924072266	40.85625457763672	-441.5409240722656	-198.7874298095703	49.52984237670898	-396.3563537597656	-97.17690277099609	45.77106475830078	-333.7995300292969	-201.0321807861328	113.1732482910156	-190.1525726318359	nan	nan	nan	
